HIERARCHY
ROOT root
{
	OFFSET	0	13.1	24.9
	CHANNELS 6  Xposition Yposition Zposition Xrotation Yrotation Zrotation
	JOINT spine_1
	{
		OFFSET	0	9.99999	0
		CHANNELS 3  Xrotation Yrotation Zrotation
		JOINT spine_2
		{
			OFFSET	0	112	-10
			CHANNELS 3  Xrotation Yrotation Zrotation
			JOINT spine_3
			{
				OFFSET	0	206.5	19.3
				CHANNELS 3  Xrotation Yrotation Zrotation
				JOINT spine_4
				{
					OFFSET	0	110.4	14.6
					CHANNELS 3  Xrotation Yrotation Zrotation
					JOINT neck_1
					{
						OFFSET	0	71.8	-50.3
						CHANNELS 3  Xrotation Yrotation Zrotation
						JOINT neck_2
						{
							OFFSET	0	86.2	-25.8
							CHANNELS 3  Xrotation Yrotation Zrotation
							JOINT head_ee
							{
								OFFSET	0	179.8	-8.7
								CHANNELS 3  Xrotation Yrotation Zrotation
								End Site
								{
									OFFSET	1	0	0
								}
							}
						}
					}
					JOINT left_clavicle
					{
						OFFSET	-43.2	22.4	-70.8
						CHANNELS 3  Xrotation Yrotation Zrotation
						JOINT left_shoulder
						{
							OFFSET	-93.9	-5.79999	48.7
							CHANNELS 3  Xrotation Yrotation Zrotation
							JOINT left_elbow
							{
								OFFSET	-291.4	-30.8	15.2
								CHANNELS 3  Xrotation Yrotation Zrotation
								JOINT left_lowarm_twist
								{
									OFFSET	-110.7	-3.89999	13.6
									CHANNELS 3  Xrotation Yrotation Zrotation
									JOINT left_hand
									{
										OFFSET	-110.7	-3.89999	13.6
										CHANNELS 3  Xrotation Yrotation Zrotation
										JOINT left_ee
										{
											OFFSET	-80.8	-5.10001	12.1
											CHANNELS 3  Xrotation Yrotation Zrotation
											End Site
											{
												OFFSET	1	0	0
											}
										}
									}
								}
							}
						}
					}
					JOINT right_clavicle
					{
						OFFSET	43.2	22.4	-70.8
						CHANNELS 3  Xrotation Yrotation Zrotation
						JOINT right_shoulder
						{
							OFFSET	93.9	-5.79999	48.7
							CHANNELS 3  Xrotation Yrotation Zrotation
							JOINT right_elbow
							{
								OFFSET	291.4	-30.8	15.2
								CHANNELS 3  Xrotation Yrotation Zrotation
								JOINT right_lowarm_twist
								{
									OFFSET	110.7	-3.89999	13.6
									CHANNELS 3  Xrotation Yrotation Zrotation
									JOINT right_hand
									{
										OFFSET	110.7	-3.89999	13.6
										CHANNELS 3  Xrotation Yrotation Zrotation
										JOINT right_ee
										{
											OFFSET	80.8	-5.10001	12.1
											CHANNELS 3  Xrotation Yrotation Zrotation
											End Site
											{
												OFFSET	1	0	0
											}
										}
									}
								}
							}
						}
					}
				}
			}
		}
	}
	JOINT left_hip
	{
		OFFSET	-82.8	-127.5	0.300001
		CHANNELS 3  Xrotation Yrotation Zrotation
		JOINT left_knee
		{
			OFFSET	-28.2	-396.7	2.2
			CHANNELS 3  Xrotation Yrotation Zrotation
			JOINT left_ankle
			{
				OFFSET	-11.7	-411.3	35.4
				CHANNELS 3  Xrotation Yrotation Zrotation
				JOINT left_toes
				{
					OFFSET	0	-60	-88.6
					CHANNELS 3  Xrotation Yrotation Zrotation
					JOINT left_foot_ee
					{
						OFFSET	-22.5	-16.5	-42.2
						CHANNELS 3  Xrotation Yrotation Zrotation
						End Site
						{
							OFFSET	1	0	0
						}
					}
				}
			}
		}
	}
	JOINT right_hip
	{
		OFFSET	82.8	-127.5	0.300001
		CHANNELS 3  Xrotation Yrotation Zrotation
		JOINT right_knee
		{
			OFFSET	28.2	-396.7	2.2
			CHANNELS 3  Xrotation Yrotation Zrotation
			JOINT right_ankle
			{
				OFFSET	11.7	-411.3	35.4
				CHANNELS 3  Xrotation Yrotation Zrotation
				JOINT right_toes
				{
					OFFSET	0	-60	-88.6
					CHANNELS 3  Xrotation Yrotation Zrotation
					JOINT right_foot_ee
					{
						OFFSET	22.5	-16.5	-42.2
						CHANNELS 3  Xrotation Yrotation Zrotation
						End Site
						{
							OFFSET	1	0	0
						}
					}
				}
			}
		}
	}
}
MOTION
Frames: 5
Frame Time: 0.02
3464.88649753 731.014 -1529.67359551 15.7924759134 65.3940189343 -27.8030028959 -3.08513 1.33203 5.80394 -3.06691 0.960664 5.87659 -2.94111 -0.601045 5.92401 -2.98989 0.340382 5.94462 -13.7099 5.28636 2.22536 -13.7501 8.70809 3.75384 -0.0 0.0 -0.0 -3.3153 24.7753 -1.55613 1.70343 -14.8427 68.9844 1.18247 -30.3589 0.320825 35.8982 -0.153281 -4.50907 0.0952561 14.9998 6.73466 -0.0 0.0 -0.0 12.9899 27.8001 -25.43 6.91931 14.4513 -64.2623 0.262022 7.39571 -0.0169344 14.2489 -0.280259 1.79392 4.59895 22.7796 -20.8262 0.0 0.0 0.0 -2.2774 32.4784 8.65298 -19.8686 0.29718 3.01925 22.7483 27.1847 -3.26788 -12.0295 0.0 0.0 -0.0 0.0 -0.0 -8.04828 16.4124 12.6037 -29.1852 -0.0744103 -4.43008 37.3401 14.8602 4.91879 -4.59758 0.0 0.0 0.0 0.0 0.0 
3467.00026754 731.014 -1533.6993813 14.6296764984 63.3422661833 -26.5135020124 -3.08513 1.33203 5.80394 -3.06691 0.960664 5.87659 -2.94111 -0.601045 5.92401 -2.98989 0.340382 5.94462 -13.7099 5.28636 2.22536 -13.7501 8.70809 3.75384 -0.0 0.0 -0.0 -3.3153 24.7753 -1.55613 1.70343 -14.8427 68.9844 1.18247 -30.3589 0.320825 35.8982 -0.153281 -4.50907 0.0952561 14.9998 6.73466 -0.0 0.0 -0.0 12.9899 27.8001 -25.43 6.91931 14.4513 -64.2623 0.262022 7.39571 -0.0169344 14.2489 -0.280259 1.79392 4.59895 22.7796 -20.8262 0.0 0.0 0.0 -2.2774 32.4784 8.65298 -19.8686 0.29718 3.01925 22.7483 27.1847 -3.26788 -12.0295 0.0 0.0 -0.0 0.0 -0.0 -8.04828 16.4124 12.6037 -29.1852 -0.0744103 -4.43008 37.3401 14.8602 4.91879 -4.59758 0.0 0.0 0.0 0.0 0.0 
3467.61631478 731.014 -1534.80794667 14.3379063221 62.7681257778 -26.1862054835 -3.08513 1.33203 5.80394 -3.06691 0.960664 5.87659 -2.94111 -0.601045 5.92401 -2.98989 0.340382 5.94462 -13.7099 5.28636 2.22536 -13.7501 8.70809 3.75384 -0.0 0.0 -0.0 -3.3153 24.7753 -1.55613 1.70343 -14.8427 68.9844 1.18247 -30.3589 0.320825 35.8982 -0.153281 -4.50907 0.0952561 14.9998 6.73466 -0.0 0.0 -0.0 12.9899 27.8001 -25.43 6.91931 14.4513 -64.2623 0.262022 7.39571 -0.0169344 14.2489 -0.280259 1.79392 4.59895 22.7796 -20.8262 0.0 0.0 0.0 -2.2774 32.4784 8.65298 -19.8686 0.29718 3.01925 22.7483 27.1847 -3.26788 -12.0295 0.0 0.0 -0.0 0.0 -0.0 -8.04828 16.4124 12.6037 -29.1852 -0.0744103 -4.43008 37.3401 14.8602 4.91879 -4.59758 0.0 0.0 0.0 0.0 0.0 
3467.17993431 731.014 -1534.02549024 14.5426668847 63.1737907562 -26.4160715275 -3.08513 1.33203 5.80394 -3.06691 0.960664 5.87659 -2.94111 -0.601045 5.92401 -2.98989 0.340382 5.94462 -13.7099 5.28636 2.22536 -13.7501 8.70809 3.75384 -0.0 0.0 -0.0 -3.3153 24.7753 -1.55613 1.70343 -14.8427 68.9844 1.18247 -30.3589 0.320825 35.8982 -0.153281 -4.50907 0.0952561 14.9998 6.73466 -0.0 0.0 -0.0 12.9899 27.8001 -25.43 6.91931 14.4513 -64.2623 0.262022 7.39571 -0.0169344 14.2489 -0.280259 1.79392 4.59895 22.7796 -20.8262 0.0 0.0 0.0 -2.2774 32.4784 8.65298 -19.8686 0.29718 3.01925 22.7483 27.1847 -3.26788 -12.0295 0.0 0.0 -0.0 0.0 -0.0 -8.04828 16.4124 12.6037 -29.1852 -0.0744103 -4.43008 37.3401 14.8602 4.91879 -4.59758 0.0 0.0 0.0 0.0 0.0 
3445.09208166 732.176 -1527.71053778 19.2247333845 68.4622548915 -31.5619904174 -3.26385 1.56352 5.97313 -3.24479 1.18099 6.06008 -3.08914 -0.450944 6.15723 -3.14161 0.525246 6.15136 -14.6902 4.60456 0.607046 -14.7478 8.43604 2.0788 -0.0 0.0 -0.0 -3.23507 24.5425 -1.49677 -0.634566 -14.4936 69.0638 0.838013 -22.5445 0.167032 35.5859 -0.139796 -4.47148 -0.127404 18.0776 6.56237 -0.0 0.0 -0.0 13.7738 27.562 -27.2738 11.5937 16.4883 -64.0994 0.322924 9.08864 -0.0256662 15.1142 -0.282808 1.90441 4.6389 23.2254 -20.8407 0.0 0.0 0.0 3.09856 33.1669 6.44456 -20.4302 0.290276 3.10515 22.9961 26.7233 -3.29025 -11.9701 0.0 0.0 -0.0 0.0 -0.0 -9.78774 15.0391 13.0995 -27.6817 -0.125857 -4.20508 35.4883 15.502 4.75989 -5.68366 0.0 0.0 0.0 0.0 0.0 
